<svg width="640" height="640" viewBox="0 0 640 640" fill="none" xmlns="http://www.w3.org/2000/svg">
<rect x="148" y="426" width="343" height="106" fill="white"/>
<path d="M192 576C139 576 96 533 96 480V160C96 107 139 64 192 64H496C522.5 64 544 85.5 544 112V400C544 420.9 530.6 438.7 512 445.3V512C529.7 512 544 526.3 544 544C544 561.7 529.7 576 512 576H192ZM192 448C174.3 448 160 462.3 160 480C160 497.7 174.3 512 192 512H448V448H192Z" fill="#45556C"/>
<path d="M314.365 360.752C312.488 349.659 307.538 337.712 299.517 324.912C291.496 311.941 280.061 299.909 265.213 288.816C250.536 277.723 235.858 270.64 221.181 267.568V256.816C235.688 253.403 249.597 247.088 262.909 237.872C276.392 228.485 287.656 217.221 296.701 204.08C305.917 190.597 311.805 177.285 314.365 164.144H325.117C326.653 172.677 329.725 181.467 334.333 190.512C338.941 199.387 344.829 207.92 351.997 216.112C359.336 224.133 367.528 231.387 376.573 237.872C390.056 247.429 403.794 253.744 417.789 256.816V267.568C408.402 269.445 398.674 273.285 388.605 279.088C378.706 284.891 369.49 291.803 360.957 299.824C352.424 307.675 345.426 315.952 339.965 324.656C331.944 337.456 326.994 349.488 325.117 360.752H314.365Z" fill="white"/>
</svg>
